<svg version="1.1" id="Capa_1" xmlns="http://www.w3.org/2000/svg" xmlns:xlink="http://www.w3.org/1999/xlink" x="0px" y="0px"
	 viewBox="0 0 340.127 400.127" style="enable-background:new 0 0 340.127 340.127;" xml:space="preserve">
<g>
	<g id="Flags_2_">
		<g>
			<path d="M294.641,35.781c0.023-0.227,0.136-0.454,0.136-0.703c0-0.249-0.136-0.454-0.136-0.703v-0.068
				c0.045-0.023-0.227-0.884-0.204-0.907c-0.726-5.986-4.943-10.68-10.68-12.131c-1.088-0.023-2.766-0.703-3.492-0.703
				c-1.27,0-3.22,0.295-5.397,0.726c-16.122,11.995-49.092,30.725-68.071,26.417c-5.147-1.179-8.503-4.059-10.816-9.319
				C179.066-0.023,118.931,6.032,90.701,11.338C89.816,6.009,84.918,0,79.363,0c-6.19,0-11.61,7.369-11.61,13.56l0.272,281.217
				c-13.016,3.106-22.675,12.902-22.675,22.675c0,12.403,15.442,22.675,34.013,22.675c18.548,0,34.013-10.272,34.013-22.675
				c0-9.773-9.66-19.569-22.675-22.675V147.388c25.487-5.147,74.692-13.718,84.782,9.183c5.17,11.746,14.285,19.41,26.371,22.154
				c3.447,0.794,7.029,1.134,10.703,1.134c32.607,0,72.356-28.072,82.22-36.575l-0.136-0.159V35.781z M272.238,132.287
				c-16.87,11.927-47.391,28.571-65.44,24.512c-5.147-1.179-8.503-4.059-10.816-9.319c-16.848-38.253-76.234-27.777-104.623-22.494
				l-0.658-90.973c25.487-5.125,74.715-9.41,84.782,13.446c5.17,11.746,14.285,19.387,26.371,22.154
				c3.447,0.771,7.029,1.134,10.703,1.134c20.068,0,42.811-10.657,59.681-20.816C272.238,49.931,272.238,132.287,272.238,132.287z"
				/>
		</g>
	</g>
</g>
<g>
</g>
<g>
</g>
<g>
</g>
<g>
</g>
<g>
</g>
<g>
</g>
<g>
</g>
<g>
</g>
<g>
</g>
<g>
</g>
<g>
</g>
<g>
</g>
<g>
</g>
<g>
</g>
<g>
</g>
</svg>
